<?xml version="1.0" encoding="utf-8"?>
<!-- Generator: Adobe Illustrator 17.0.0, SVG Export Plug-In . SVG Version: 6.00 Build 0)  -->
<!DOCTYPE svg PUBLIC "-//W3C//DTD SVG 1.1//EN" "http://www.w3.org/Graphics/SVG/1.1/DTD/svg11.dtd">
<svg version="1.1" id="Layer_1" xmlns="http://www.w3.org/2000/svg" xmlns:xlink="http://www.w3.org/1999/xlink" x="0px" y="0px"
	 width="266px" height="266px" viewBox="0 0 266 266" enable-background="new 0 0 266 266" xml:space="preserve">
<g>
	<path fill="#FF8F9F" d="M263.998,133.002c0,72.348-58.645,130.997-130.997,130.997c-72.347,0-130.998-58.648-130.998-130.997
		c0-72.347,58.651-131,130.998-131C205.353,2.002,263.998,60.654,263.998,133.002z"/>
	<path fill="#FF8F9F" d="M263.998,133.002c0,72.348-58.645,130.997-130.997,130.997c-72.347,0-130.998-58.648-130.998-130.997
		c0-72.347,58.651-131,130.998-131C205.353,2.002,263.998,60.654,263.998,133.002z"/>
	<g>
		<path fill="#FFFFFF" d="M133,258.561c-69.235,0-125.561-56.326-125.561-125.559C7.439,63.766,63.766,7.439,133,7.439
			c69.236,0,125.563,56.327,125.563,125.562C258.563,202.235,202.236,258.561,133,258.561z M133,8.295
			C64.237,8.295,8.295,64.238,8.295,133.002c0,68.762,55.943,124.704,124.705,124.704c68.764,0,124.707-55.942,124.707-124.704
			C257.707,64.238,201.764,8.295,133,8.295z"/>
	</g>
	<g>
		<g>
			<path fill="#FFFFFF" d="M132.527,226.724c-21.975,0-43.121-8.026-59.541-22.604l0.574-0.646
				c16.261,14.435,37.204,22.388,58.967,22.388c21.761,0,42.705-7.951,58.963-22.384l0.57,0.648
				C175.646,218.698,154.502,226.724,132.527,226.724z"/>
		</g>
		<g>
			<path fill="#FFFFFF" d="M197.918,194.129c0-0.806,0.663-1.466,1.477-1.466c0.813,0,1.466,0.659,1.466,1.466
				c0,0.816-0.653,1.475-1.466,1.475C198.581,195.604,197.918,194.945,197.918,194.129z"/>
			<path fill="#FFFFFF" d="M64.789,194.129c0-0.806,0.662-1.466,1.472-1.466c0.808,0,1.471,0.659,1.471,1.466
				c0,0.816-0.663,1.475-1.471,1.475C65.451,195.604,64.789,194.945,64.789,194.129z"/>
		</g>
	</g>
	<g>
		<path fill="#FFFFFF" d="M96.086,158.318c1.19-1.193,1.788-2.64,1.788-4.337c0-1.674-0.598-3.113-1.788-4.314
			c-0.995-1.005-2.221-1.6-3.668-1.789h-5.022v18.293h1.816v-6.05h2.64l3.871,6.05h2.203l-4.133-6.36
			C94.485,159.637,95.251,159.142,96.086,158.318z M91.76,158.292h-2.549v-8.597h2.549c1.182,0,2.197,0.417,3.037,1.254
			c0.841,0.837,1.261,1.847,1.261,3.033c0,1.192-0.419,2.206-1.261,3.048C93.957,157.872,92.942,158.292,91.76,158.292z"/>
		<path fill="#FFFFFF" d="M119.491,147.62c-2.583,0-4.791,0.915-6.626,2.751c-1.831,1.829-2.747,4.039-2.747,6.62
			c0,2.599,0.917,4.814,2.747,6.645c1.835,1.826,4.043,2.742,6.626,2.742c2.589,0,4.804-0.916,6.636-2.742
			c1.832-1.831,2.745-4.045,2.745-6.645c0-2.581-0.913-4.791-2.745-6.62C124.294,148.535,122.079,147.62,119.491,147.62z
			 M124.834,162.34c-1.481,1.482-3.256,2.222-5.344,2.222c-2.078,0-3.854-0.74-5.329-2.222c-1.477-1.48-2.214-3.265-2.214-5.349
			c0-2.076,0.738-3.852,2.214-5.329c1.476-1.476,3.251-2.216,5.329-2.216c2.087,0,3.862,0.74,5.344,2.216
			c1.471,1.477,2.213,3.254,2.213,5.329C127.048,159.075,126.306,160.86,124.834,162.34z"/>
		<path fill="#FFFFFF" d="M146.768,154.637c-0.816-0.378-1.45-0.792-1.903-1.249c-0.448-0.447-0.67-0.99-0.67-1.634
			c0-0.644,0.226-1.19,0.676-1.634c0.451-0.448,0.994-0.673,1.63-0.673c0.633,0,1.172,0.226,1.621,0.673
			c0.258,0.256,0.49,0.663,0.692,1.221l1.654-0.645c-0.268-0.787-0.622-1.397-1.055-1.827c-0.821-0.805-1.787-1.209-2.911-1.209
			c-1.14,0-2.117,0.404-2.917,1.209c-0.8,0.808-1.202,1.769-1.202,2.885c0,1.149,0.392,2.114,1.176,2.895
			c0.784,0.781,1.827,1.387,3.119,1.815c0.991,0.404,1.829,0.948,2.512,1.635c0.739,0.746,1.108,1.639,1.108,2.677
			c0,1.049-0.372,1.942-1.113,2.685c-0.742,0.741-1.642,1.114-2.683,1.114c-1.048,0-1.945-0.371-2.691-1.11
			c-0.638-0.633-1.019-1.546-1.147-2.742l-1.737,0.619c0.21,1.385,0.748,2.513,1.621,3.386c1.084,1.101,2.396,1.649,3.955,1.649
			c1.535,0,2.852-0.548,3.936-1.644c1.092-1.092,1.637-2.412,1.637-3.957c0-1.535-0.538-2.847-1.622-3.941
			C149.444,155.833,148.219,155.101,146.768,154.637z"/>
		<path fill="#FFFFFF" d="M171.617,147.879h-1.584l-6.718,18.293h1.93l2.845-7.686h5.458l2.793,7.686h1.917L171.617,147.879z
			 M168.743,156.683l2.078-5.715l2.071,5.715H168.743z"/>
	</g>
	<path fill="#FFFFFF" d="M161.318,70.041c-0.319-0.17-0.6-0.124-0.856,0.127c-0.76,0.886-1.52,1.77-2.276,2.659
		c-0.762,0.885-1.562,1.751-2.408,2.596c-0.294,0.338-0.611,0.654-0.947,0.948c-0.34,0.297-0.677,0.59-1.014,0.886
		c-0.253,0.211-0.528,0.391-0.822,0.539c-0.294,0.147-0.614,0.264-0.951,0.347c-0.292,0.087-0.591,0.075-0.885-0.031
		c-0.294-0.106-0.506-0.286-0.631-0.54c-0.211-0.378-0.309-0.788-0.283-1.232c0.016-0.442,0.072-0.854,0.152-1.234
		c0.089-0.507,0.201-1.004,0.354-1.488c0.144-0.484,0.303-0.958,0.47-1.423c0.086-0.295,0.194-0.561,0.32-0.792
		c0.124-0.231,0.252-0.474,0.379-0.728c0.17-0.252,0.327-0.506,0.473-0.757c0.147-0.255,0.282-0.509,0.412-0.762
		c0.461-0.844,0.898-1.666,1.298-2.469c0.401-0.8,0.786-1.624,1.169-2.468c0.043-0.127,0.128-0.305,0.255-0.539
		c0.126-0.231,0.222-0.464,0.285-0.697c0.063-0.231,0.072-0.441,0.028-0.63c-0.043-0.192-0.187-0.328-0.44-0.412
		c-0.213-0.084-0.401-0.136-0.568-0.157c-0.17-0.023-0.359-0.055-0.569-0.097c-1.1-0.127-2.186-0.074-3.263,0.16
		c-1.075,0.23-2.098,0.579-3.071,1.044c-0.796,0.38-1.562,0.832-2.277,1.36c-0.714,0.527-1.391,1.085-2.022,1.676
		c-0.804,0.717-1.542,1.487-2.215,2.31c-0.484,0.587-0.888,1.221-1.264,1.88c-0.042,0.038-0.088,0.066-0.127,0.117l-1.585,1.831
		c-0.632,0.762-1.276,1.52-1.929,2.28c-0.654,0.76-1.362,1.432-2.122,2.025c-1.39,1.226-2.952,1.858-4.684,1.897
		c-1.015,0-2.005-0.168-2.971-0.506c-0.974-0.336-1.902-0.737-2.788-1.201c-0.8-0.466-1.581-0.93-2.34-1.392
		c-0.762-0.464-1.517-0.931-2.28-1.392c1.18-1.775,2.194-3.609,3.038-5.507c0.846-1.901,1.664-3.837,2.467-5.823l2.406-6.327
		c0.083-0.256,0.179-0.508,0.282-0.762c0.108-0.253,0.223-0.485,0.352-0.695l0.252-0.76l0.888-0.191
		c1.009-0.25,2.045-0.568,3.101-0.946c0.8-0.298,1.619-0.643,2.465-1.048c0.844-0.4,1.634-0.874,2.375-1.422
		c0.739-0.546,1.393-1.161,1.961-1.838c0.568-0.67,1.002-1.454,1.297-2.338c0.208-0.634,0.275-1.299,0.193-1.995
		c-0.089-0.695-0.402-1.275-0.95-1.739c-0.593-0.463-1.247-0.697-1.964-0.697c-0.719,0-1.411,0.104-2.084,0.318
		c-1.691,0.589-3.062,1.592-4.119,3.003c-1.053,1.415-1.94,2.881-2.656,4.401c-0.507,0.972-0.948,1.919-1.331,2.85l-0.189,0.378
		c-0.086,0-0.148,0.01-0.191,0.032c-0.043,0.021-0.104,0.034-0.186,0.034l-0.826,0.124l-1.709,0.19
		c-1.052,0.084-2.084,0.126-3.101,0.126c-1.009,0-2.026-0.084-3.037-0.252c-0.76-0.126-1.522-0.286-2.279-0.475
		c-0.76-0.19-1.499-0.473-2.217-0.854c-0.336-0.213-0.663-0.443-0.98-0.697c-0.315-0.251-0.56-0.547-0.729-0.884
		c-0.084-0.213-0.117-0.412-0.091-0.603c0.02-0.189-0.036-0.37-0.161-0.536c-0.382-0.383-0.74-0.383-1.078,0
		c-0.208,0.209-0.274,0.493-0.189,0.854c0.084,0.358,0.17,0.643,0.252,0.854c0.169,0.376,0.394,0.726,0.668,1.043
		c0.271,0.318,0.578,0.579,0.914,0.792c0.719,0.465,1.457,0.833,2.216,1.108c0.761,0.274,1.538,0.494,2.341,0.664
		c1.606,0.339,3.228,0.485,4.877,0.443c1.645-0.041,3.266-0.191,4.871-0.443c-0.846,2.066-1.646,4.145-2.407,6.234
		c-0.759,2.086-1.581,4.145-2.465,6.17c-0.425,0.93-0.856,1.848-1.301,2.752c-0.443,0.91-0.937,1.782-1.484,2.626l-0.379,0.634
		l-0.193,0.255c-0.04,0.127-0.105,0.167-0.188,0.127l-1.455-0.824c-0.466-0.252-0.941-0.483-1.428-0.697
		c-0.485-0.207-0.979-0.4-1.484-0.568c-0.76-0.252-1.593-0.431-2.501-0.536c-0.907-0.106-1.797-0.084-2.659,0.061
		c-0.866,0.149-1.655,0.445-2.375,0.886c-0.716,0.442-1.284,1.088-1.706,1.933c-0.382,0.843-0.538,1.719-0.473,2.625
		c0.062,0.906,0.348,1.718,0.849,2.434c0.465,0.721,1.068,1.237,1.807,1.552c0.739,0.317,1.529,0.478,2.373,0.478
		c0.971,0.041,1.93-0.086,2.883-0.382c0.949-0.295,1.842-0.696,2.689-1.202c0.759-0.505,1.477-1.099,2.149-1.775l1.014-1.072
		l0.441-0.57l0.257-0.318c0.08-0.084,0.144-0.093,0.186-0.032c0.046,0.063,0.109,0.117,0.193,0.16
		c0.843,0.505,1.695,1.044,2.563,1.615c0.862,0.568,1.749,1.075,2.66,1.517c0.908,0.446,1.844,0.804,2.813,1.075
		c0.97,0.276,1.984,0.394,3.04,0.348c1.644-0.041,3.182-0.569,4.619-1.582c0.719-0.465,1.359-1,1.931-1.614
		c0.568-0.611,1.146-1.234,1.742-1.867l0.201-0.244c-0.075,0.372-0.121,0.75-0.14,1.131c0,0.677,0.111,1.331,0.345,1.961
		c0.233,0.633,0.645,1.14,1.235,1.519c0.716,0.466,1.52,0.644,2.406,0.54c0.888-0.106,1.688-0.328,2.406-0.668
		c0.841-0.462,1.635-1.042,2.372-1.74c0.739-0.695,1.401-1.422,1.996-2.181c-0.13,0.845-0.141,1.697-0.033,2.563
		c0.104,0.864,0.602,1.486,1.487,1.866c0.8,0.379,1.591,0.412,2.375,0.097c0.777-0.319,1.462-0.73,2.051-1.235
		c0.846-0.677,1.627-1.415,2.346-2.216c0.715-0.802,1.433-1.604,2.152-2.406c0.294-0.338,0.591-0.684,0.882-1.044
		c0.297-0.358,0.614-0.705,0.954-1.042c0.082-0.087,0.167-0.181,0.254-0.287c0.082-0.104,0.145-0.242,0.186-0.41
		C161.75,70.464,161.635,70.21,161.318,70.041z M130.116,49.534c0.444-0.885,0.939-1.747,1.489-2.593
		c0.461-0.634,0.948-1.235,1.454-1.803c0.506-0.572,1.098-1.024,1.774-1.365c0.248-0.124,0.556-0.261,0.913-0.408
		c0.36-0.149,0.729-0.244,1.111-0.286c0.381-0.042,0.734-0.021,1.075,0.063c0.337,0.087,0.609,0.295,0.821,0.63
		c0.34,0.509,0.402,1.069,0.192,1.68c-0.212,0.612-0.469,1.149-0.757,1.612c-0.464,0.675-1.037,1.269-1.713,1.775
		c-0.672,0.505-1.37,0.948-2.088,1.329c-0.843,0.465-1.74,0.864-2.691,1.201c-0.948,0.338-1.908,0.633-2.877,0.888
		C129.241,51.328,129.674,50.421,130.116,49.534z M115.212,76.432c-0.764,0.721-1.626,1.268-2.599,1.647
		c-0.799,0.337-1.676,0.592-2.624,0.758c-0.951,0.171-1.849,0.064-2.692-0.314c-0.801-0.34-1.36-0.91-1.68-1.708
		c-0.312-0.803-0.345-1.626-0.093-2.47c0.257-0.76,0.706-1.362,1.36-1.805c0.658-0.443,1.361-0.726,2.122-0.855
		c0.971-0.167,1.964-0.124,2.977,0.129c1.013,0.25,1.96,0.589,2.851,1.012c0.795,0.381,1.619,0.822,2.464,1.329
		C116.666,74.954,115.971,75.715,115.212,76.432z M149.767,71.432c-0.464,0.719-0.959,1.437-1.489,2.153
		c-0.526,0.718-1.081,1.369-1.679,1.962c-0.503,0.505-1.039,0.971-1.61,1.39c-0.568,0.424-1.216,0.743-1.928,0.953
		c-0.34,0.084-0.709,0.149-1.111,0.188c-0.401,0.044-0.771,0-1.108-0.127c-0.296-0.127-0.518-0.314-0.662-0.569
		c-0.15-0.254-0.266-0.528-0.35-0.823c-0.169-0.676-0.169-1.371,0-2.092c0.17-0.714,0.379-1.367,0.635-1.96
		c0.421-0.971,0.949-1.877,1.58-2.722c0.629-0.843,1.327-1.622,2.091-2.339c0.63-0.636,1.293-1.223,1.992-1.773
		c0.693-0.547,1.468-1.034,2.31-1.456c0.843-0.422,1.751-0.738,2.721-0.948c0.969-0.213,1.944-0.256,2.914-0.13
		c-0.34,0.594-0.666,1.171-0.982,1.742c-0.318,0.57-0.644,1.15-0.984,1.741c-0.21,0.379-0.403,0.76-0.566,1.139
		c-0.169,0.379-0.34,0.78-0.506,1.202l-0.571,1.203c-0.089,0.21-0.18,0.422-0.285,0.634
		C150.075,71.012,149.933,71.226,149.767,71.432z"/>
	<g>
		<rect x="52.118" y="137.857" fill="#FFFFFF" width="161.417" height="0.247"/>
	</g>
	<g>
		<rect x="52.118" y="175.868" fill="#FFFFFF" width="161.417" height="0.248"/>
	</g>
	<g>
		<path fill="#FFFFFF" d="M52.237,90.585h5.766c5.314,0.172,9.235,2.445,11.764,6.817c1.108,1.845,1.664,4.057,1.664,6.638
			c0,4.818-1.358,8.316-4.074,10.495c-2.716,2.178-5.829,3.302-9.329,3.369v10.613h-5.792V90.585z M58.029,95.916v16.351
			c1.793-0.016,3.311-0.412,4.562-1.179c2.596-1.675,3.893-3.965,3.893-6.868c0.02-1.54-0.342-2.914-1.075-4.13
			C63.788,97.307,61.325,95.916,58.029,95.916z"/>
		<path fill="#FFFFFF" d="M91.66,90.404l10.299,38.24h-5.868l-1.617-6.051h-9.123l-1.61,6.051h-5.87l10.303-38.24H91.66z
			 M86.992,116.522h5.845l-2.896-12.226L86.992,116.522z"/>
		<path fill="#FFFFFF" d="M108.401,90.686h5.278l12.353,22.708V90.585h5.744v37.932l-4.229,0.05l-13.38-23.478v23.427h-5.766V90.686
			z"/>
		<path fill="#FFFFFF" d="M138.209,90.791h17.483v5.741h-11.713v10.249h11.713v5.742h-11.713v10.252h11.713v5.742h-17.483V90.791z"
			/>
		<path fill="#FFFFFF" d="M162.129,90.585h5.768c5.311,0.172,9.232,2.445,11.763,6.817c1.111,1.845,1.667,4.057,1.667,6.638
			c0,5.16-1.814,8.97-5.433,11.43l6.997,13.097h-6.154l-5.74-10.762c-0.957,0.186-1.983,0.219-3.078,0.098v10.613h-5.79V90.585z
			 M167.919,95.916v16.351c1.794-0.016,3.316-0.412,4.565-1.179c2.596-1.675,3.896-3.965,3.896-6.868
			c0.017-1.54-0.345-2.914-1.078-4.13C173.68,97.307,171.218,95.916,167.919,95.916z"/>
		<path fill="#FFFFFF" d="M203.115,90.404l10.302,38.24h-5.869l-1.614-6.051h-9.124l-1.618,6.051h-5.866l10.304-38.24H203.115z
			 M198.45,116.522h5.843l-2.897-12.226L198.45,116.522z"/>
	</g>
	<g>
		<path fill="#FFFFFF" d="M88.71,191.344c0.613,0,1.185,0.232,1.702,0.688l0.033,0.028l0.525-0.465l-0.041-0.037
			c-0.669-0.612-1.415-0.922-2.219-0.922c-0.865,0-1.611,0.309-2.218,0.922c-0.608,0.61-0.916,1.354-0.916,2.213
			c0,0.864,0.308,1.611,0.916,2.219c0.608,0.607,1.354,0.916,2.218,0.916c0.805,0,1.551-0.307,2.219-0.912l0.041-0.038l-0.525-0.47
			l-0.033,0.03c-0.517,0.459-1.089,0.692-1.702,0.692c-0.667,0-1.245-0.241-1.718-0.713c-0.473-0.473-0.714-1.053-0.714-1.724
			c0-0.667,0.24-1.244,0.714-1.715C87.464,191.583,88.043,191.344,88.71,191.344z"/>
		<path fill="#FFFFFF" d="M97.122,190.623c-0.861,0-1.608,0.31-2.218,0.921c-0.612,0.612-0.921,1.358-0.921,2.219
			c0,0.867,0.309,1.616,0.921,2.226c0.61,0.609,1.357,0.918,2.218,0.918c0.864,0,1.612-0.308,2.223-0.918
			c0.611-0.61,0.921-1.359,0.921-2.226c0-0.861-0.31-1.607-0.921-2.219C98.734,190.933,97.986,190.623,97.122,190.623z
			 M97.122,196.208c-0.668,0-1.247-0.241-1.721-0.716c-0.475-0.477-0.715-1.058-0.715-1.729c0-0.667,0.24-1.246,0.715-1.721
			c0.474-0.474,1.053-0.714,1.721-0.714c0.67,0,1.251,0.241,1.725,0.714c0.475,0.475,0.715,1.054,0.715,1.721
			c0,0.672-0.24,1.253-0.715,1.729C98.373,195.966,97.792,196.208,97.122,196.208z"/>
		<path fill="#FFFFFF" d="M106.483,191.344c0.613,0,1.186,0.232,1.703,0.688l0.033,0.028l0.525-0.465l-0.041-0.037
			c-0.669-0.612-1.415-0.922-2.22-0.922c-0.864,0-1.61,0.309-2.218,0.922c-0.608,0.61-0.917,1.354-0.917,2.213
			c0,0.864,0.308,1.611,0.917,2.219c0.608,0.607,1.355,0.916,2.218,0.916c0.805,0,1.552-0.307,2.22-0.912l0.041-0.038l-0.525-0.47
			l-0.033,0.03c-0.517,0.459-1.09,0.692-1.703,0.692c-0.667,0-1.245-0.241-1.718-0.713c-0.473-0.473-0.713-1.053-0.713-1.724
			c0-0.667,0.239-1.244,0.713-1.715C105.238,191.583,105.816,191.344,106.483,191.344z"/>
		<rect x="112.011" y="190.708" fill="#FFFFFF" width="0.699" height="6.13"/>
		<polygon fill="#FFFFFF" points="120.353,196.838 121.133,196.838 121.133,190.708 120.435,190.708 120.435,195.677 
			116.902,190.729 116.887,190.708 116.195,190.708 116.195,196.838 116.895,196.838 116.895,191.995 120.338,196.818 		"/>
		<path fill="#FFFFFF" d="M126.921,190.708h-0.592l-2.251,6.13h0.742l0.937-2.533h1.73l0.91,2.499l0.012,0.033h0.739l-2.214-6.096
			L126.921,190.708z M127.234,193.611h-1.223l0.611-1.687L127.234,193.611z"/>
		<path fill="#FFFFFF" d="M139.851,191.344c0.613,0,1.186,0.232,1.702,0.688l0.034,0.028l0.525-0.465l-0.042-0.037
			c-0.668-0.612-1.415-0.922-2.219-0.922c-0.864,0-1.61,0.309-2.219,0.922c-0.608,0.61-0.916,1.354-0.916,2.213
			c0,0.864,0.308,1.611,0.916,2.219c0.608,0.607,1.354,0.916,2.219,0.916c0.805,0,1.551-0.307,2.219-0.912l0.042-0.038l-0.525-0.47
			l-0.034,0.03c-0.516,0.459-1.089,0.692-1.702,0.692c-0.667,0-1.245-0.241-1.719-0.713c-0.473-0.473-0.712-1.053-0.712-1.724
			c0-0.667,0.239-1.244,0.712-1.715C138.606,191.583,139.184,191.344,139.851,191.344z"/>
		<path fill="#FFFFFF" d="M147.691,190.742l-0.013-0.033h-0.592l-2.251,6.13h0.742l0.938-2.533h1.728l0.91,2.499l0.012,0.033h0.739
			L147.691,190.742z M147.992,193.611h-1.223l0.612-1.687L147.992,193.611z"/>
		<path fill="#FFFFFF" d="M154.87,192.942c-0.261-0.122-0.467-0.258-0.613-0.403c-0.138-0.139-0.206-0.304-0.206-0.503
			c0-0.201,0.068-0.365,0.208-0.503c0.14-0.139,0.304-0.206,0.502-0.206c0.198,0,0.36,0.068,0.498,0.206
			c0.08,0.079,0.152,0.209,0.218,0.384l0.018,0.048l0.635-0.247l-0.014-0.046c-0.089-0.266-0.211-0.475-0.361-0.622
			c-0.277-0.274-0.611-0.414-0.993-0.414c-0.389,0-0.724,0.139-0.997,0.414c-0.274,0.275-0.412,0.606-0.412,0.986
			c0,0.392,0.136,0.724,0.404,0.99c0.263,0.262,0.615,0.467,1.046,0.609c0.318,0.129,0.59,0.308,0.81,0.528
			c0.232,0.235,0.351,0.52,0.351,0.847c0,0.329-0.119,0.615-0.353,0.849c-0.233,0.233-0.519,0.353-0.848,0.353
			c-0.331,0-0.617-0.119-0.852-0.351c-0.199-0.2-0.323-0.493-0.363-0.874l-0.007-0.063l-0.671,0.239l0.006,0.041
			c0.069,0.465,0.254,0.849,0.548,1.143c0.365,0.371,0.815,0.558,1.339,0.558c0.518,0,0.966-0.187,1.333-0.557
			c0.368-0.368,0.554-0.819,0.554-1.339c0-0.518-0.186-0.968-0.549-1.334C155.764,193.341,155.348,193.092,154.87,192.942z"/>
		<polygon fill="#FFFFFF" points="159.864,196.838 163.118,196.838 163.118,196.14 160.562,196.14 160.562,194.123 163.118,194.123 
			163.118,193.423 160.562,193.423 160.562,191.403 163.118,191.403 163.118,190.708 159.864,190.708 		"/>
		<path fill="#FFFFFF" d="M169.523,194.236c0.401-0.401,0.606-0.894,0.606-1.466c0-0.562-0.205-1.052-0.603-1.456
			c-0.336-0.338-0.754-0.541-1.247-0.605h-1.705v6.13h0.699v-1.995h0.793l1.263,1.971l0.015,0.023h0.844l-1.375-2.117
			C169.033,194.65,169.266,194.49,169.523,194.236z M167.273,191.408h0.791c0.374,0,0.699,0.135,0.964,0.399
			c0.267,0.265,0.401,0.589,0.401,0.963c0,0.378-0.135,0.704-0.401,0.969c-0.266,0.267-0.59,0.403-0.964,0.403h-0.791V191.408z"/>
		<path fill="#FFFFFF" d="M175.761,190.742l-0.011-0.033h-0.592l-2.251,6.13h0.744l0.938-2.533h1.728l0.911,2.499l0.011,0.033h0.739
			L175.761,190.742z M176.064,193.611h-1.222l0.61-1.687L176.064,193.611z"/>
		<polygon fill="#FFFFFF" points="109.296,206.373 105.765,201.425 105.749,201.404 105.057,201.404 105.057,207.533 
			105.756,207.533 105.756,202.688 109.2,207.513 109.214,207.533 109.995,207.533 109.995,201.404 109.296,201.404 		"/>
		<path fill="#FFFFFF" d="M116.367,201.32c-0.861,0-1.608,0.309-2.218,0.921c-0.612,0.611-0.921,1.357-0.921,2.217
			c0,0.867,0.309,1.616,0.921,2.225c0.61,0.61,1.357,0.919,2.218,0.919c0.865,0,1.613-0.309,2.223-0.919
			c0.611-0.609,0.921-1.358,0.921-2.225c0-0.86-0.31-1.606-0.921-2.217C117.98,201.629,117.232,201.32,116.367,201.32z
			 M116.367,206.903c-0.668,0-1.247-0.241-1.721-0.717c-0.474-0.476-0.715-1.057-0.715-1.729c0-0.666,0.241-1.246,0.715-1.72
			c0.475-0.475,1.053-0.716,1.721-0.716c0.671,0,1.251,0.241,1.725,0.716c0.475,0.474,0.715,1.054,0.715,1.72
			c0,0.672-0.24,1.253-0.715,1.729C117.618,206.662,117.038,206.903,116.367,206.903z"/>
		<polygon fill="#FFFFFF" points="126.981,206.373 123.45,201.425 123.435,201.404 122.742,201.404 122.742,207.533 
			123.441,207.533 123.441,202.688 126.885,207.513 126.9,207.533 127.68,207.533 127.68,201.404 126.981,201.404 		"/>
		<path fill="#FFFFFF" d="M136.975,203.637c-0.262-0.122-0.469-0.257-0.614-0.402c-0.138-0.139-0.205-0.304-0.205-0.503
			c0-0.201,0.068-0.365,0.208-0.504c0.139-0.139,0.303-0.206,0.501-0.206c0.198,0,0.362,0.068,0.5,0.206
			c0.079,0.079,0.152,0.209,0.218,0.384l0.017,0.049l0.635-0.248l-0.015-0.045c-0.089-0.267-0.211-0.476-0.36-0.622
			c-0.277-0.276-0.611-0.414-0.995-0.414c-0.388,0-0.723,0.14-0.995,0.414c-0.274,0.274-0.412,0.607-0.412,0.986
			c0,0.39,0.136,0.724,0.403,0.989c0.263,0.262,0.615,0.468,1.045,0.609c0.318,0.131,0.59,0.307,0.81,0.527
			c0.234,0.236,0.352,0.521,0.352,0.848c0,0.33-0.119,0.616-0.353,0.85c-0.234,0.233-0.52,0.352-0.85,0.352
			c-0.33,0-0.615-0.118-0.85-0.35c-0.2-0.201-0.322-0.494-0.364-0.874l-0.006-0.063l-0.671,0.238l0.006,0.041
			c0.069,0.465,0.253,0.85,0.547,1.144c0.365,0.371,0.816,0.558,1.338,0.558c0.519,0,0.968-0.187,1.334-0.557
			c0.368-0.367,0.554-0.819,0.554-1.339c0-0.517-0.184-0.967-0.549-1.334C137.867,204.036,137.452,203.788,136.975,203.637z"/>
		<polygon fill="#FFFFFF" points="141.629,202.098 143.089,202.098 143.089,207.533 143.783,207.533 143.783,202.098 
			145.239,202.098 145.239,201.404 141.629,201.404 		"/>
		<path fill="#FFFFFF" d="M150.973,201.32c-0.861,0-1.608,0.309-2.218,0.921c-0.612,0.611-0.921,1.357-0.921,2.217
			c0,0.867,0.31,1.616,0.921,2.225c0.61,0.61,1.357,0.919,2.218,0.919c0.865,0,1.613-0.309,2.224-0.919
			c0.611-0.609,0.922-1.358,0.922-2.225c0-0.86-0.311-1.606-0.922-2.217C152.586,201.629,151.838,201.32,150.973,201.32z
			 M150.973,206.903c-0.668,0-1.246-0.241-1.721-0.717c-0.474-0.476-0.715-1.057-0.715-1.729c0-0.666,0.241-1.246,0.715-1.72
			c0.475-0.475,1.053-0.716,1.721-0.716c0.671,0,1.251,0.241,1.725,0.716c0.475,0.474,0.716,1.054,0.716,1.72
			c0,0.672-0.241,1.253-0.716,1.729C152.224,206.662,151.644,206.903,150.973,206.903z"/>
		<path fill="#FFFFFF" d="M159.068,201.404h-1.706v6.129h0.698v-1.994h0.791c0.567,0,1.061-0.204,1.461-0.607
			c0.4-0.402,0.605-0.896,0.605-1.467c0-0.562-0.205-1.054-0.605-1.457C159.978,201.671,159.561,201.468,159.068,201.404z
			 M158.85,204.837h-0.791v-2.734h0.791c0.376,0,0.701,0.134,0.967,0.399c0.265,0.264,0.4,0.588,0.4,0.963
			c0,0.378-0.135,0.704-0.4,0.97C159.551,204.702,159.226,204.837,158.85,204.837z"/>
	</g>
</g>
</svg>
